<?xml version="1.0" encoding="UTF-8"?>
<svg version="1.1" viewBox="0 0 1600 1185" width="162" height="120" xmlns="http://www.w3.org/2000/svg">
<path transform="translate(829,199)" d="m0 0h150l88 2 104 3 64 2h17l15-2h26l29 2 18 3 15 5 10 5 13 9 11 10 10 14 6 12 6 19 3 18v18l-3 19-7 17-7 11-10 11-10 8-12 7-18 5-16 3-22 2-32 1-164 2-11 2-6 3-4 8-2 15-1 26-1 61-1 109-1 32-3 36-7 40-6 23-8 22-14 30-12 26-7 14-11 17-11 14-10 11-10 13-9 13-12 13-35 35h-2v2h-2l-2 4-12 12-15 11-24 15-15 9-26 14-17 9-28 10-35 10-27 7-19 3-30 3h-29l-5-1 3-2 21-8 15-8 20-13 18-10 20-11 8-6 12-11 10-8 11-10 9-11 13-16 11-15 12-19 12-22 11-22 7-17 12-48 8-36 7-31 5-34 1-12 1-28 1-75v-85l-1-78-2-16-5-10-6-5-7-3-8-1h-17l-21 1-52-2-9-1-11-9-16-8v-15l4-48v-17l-2-23-6-26-3-14v-18l3-6 11-8 17-9 4-1 16-1z" fill="#17c7fd"/>
<path transform="translate(664,197)" d="m0 0h18l10 6 12 11 5 6 2 6 1 1-1 16-5 31-1 12v103l-2 6-6 5-12 5-24 3-41 3-28 4-21 5-32 11-16 7-10 6-14 11-12 11-8 7-12 13-9 11-10 13-9 14-8 16-6 15-13 53-4 22v22l9 45 4 18 7 21 10 21 8 12 9 11 11 12 16 17 14 13 17 12 21 10 36 13 17 5 23 4 28 3h16l27-3 21-4 24-8 20-9 12-7 16-12 14-12 13-10 20-13 6-1 4 3 4-3h4l-2 6-6 14-5 12-26 46-14 28-13 21-8 10-9 10-16 17-12 12-10 8-18 14-13 9-16 11-18 10-14 6-29 8-21 4-30 4-10 1h-28l-38-7-23-6-22-8-17-9-18-11-16-11-21-16-14-12-12-11-21-21-7-8-11-13-13-18-10-14-10-15-13-22-8-15-11-25-9-24-9-32-11-48-3-18-2-26v-20l2-28 5-28 11-54 6-21 6-16 9-20 12-25 10-19 13-22 9-14 12-14 7-7 7-8 15-16 15-15 8-7 10-9 12-12 12-9 28-17 20-12 29-15 16-8 27-11 29-9 29-6 53-8 34-3z" fill="#17c7fd"/>
<path transform="translate(1062,416)" d="m0 0 12 1h3v2l2 1 2 6 2 10 1 10 4 9 1 4-1 61-1 109-1 32-3 36-7 40-6 23-8 22-14 30-12 26-7 14-11 17-11 14-10 11-10 13-9 13-12 13-35 35h-2v2h-2l-2 4-12 12-15 11-24 15-15 9-26 14-17 9-28 10-35 10-27 7-19 3-30 3h-29l-5-1 3-2 21-8 15-8 20-13 18-10 20-11 8-6 12-11 10-8 11-10 9-11 13-16 11-15 12-19 12-22 11-22 7-17 12-48 8-36 7-31 5-34 1-12 1-28 1-75h1l1 13 3-28v-9l1-11 3-32 2-11v-12l3-1 6-9 6-8h2l2-4 8-8 7-8 10-10 11-8 6-5 13-8 14-6 12-6 30-10 18-4h12z" fill="#198EC3"/>
<path transform="translate(664,197)" d="m0 0h18l10 6 12 11 5 6 2 6 1 1-1 16-5 31-1 12v103l-2 6-6 5-12 5-24 3-41 3-28 4-21 5-32 11-16 7-10 6-14 11-12 11-8 7-12 13-9 11-10 13-9 14-8 16-6 15-13 53-4 22v22l9 45 4 18 5 16-1 3-3-1v-3l-2 1 3 9 5 8 5 9-1 3-4-6-9-11-12-17-7-9-9-13-6-10-6-15-7-15-3-7-7-16-6-16-10-33-9-39-3-23-1-11-1-29v-27l2-43 2-26 6-36 2-10v-11l-6-1-3-2 2-4 34-34 12-9 28-17 20-12 29-15 16-8 27-11 29-9 29-6 53-8 34-3z" fill="#198EC3"/>
<path transform="translate(302,440)" d="m0 0 4 1v2l7 1 6 5 1 9 2 12 2 4 3 8 4 29 1 10 4 31 6 31 6 22 9 34 3 13 2 9 6 21 4 12 3 6 1 8 7 13 6 6v2h2l5 10v2l4 2v14l-1 2h-2l-1 6-3 3v5 3l-1 5-1 6-2 5h4v5l-2 2h-7l-2 3h2l2 6-2 4-5 3h-5l1 5-5 9-5 4-9-1-4 1-6-1-1 3h-5l1-5-11 2-8-3v6l-14-2-8-4-2-3v-3l-5-2-2-5-3 1-5-5-5-3h-3v-5l-5-4-2-1v-8l-7-2-5-3-1-5 1-2h-6l-6-9-4-9-6-12-5-16-6-26-2-9-4-17-1-2-3-25-2-21v-7l1-10 3-22 1-7 4-26 3-8v-6l2-7 3-15 4-13 2-8 3-6 7-15h2l2-4 9-11 7-11 9-10 3-1 2-4 7-1 12 1z" fill="#17c7fd"/>
<path transform="translate(829,199)" d="m0 0h150l88 2 104 3 6 1-3 2h-21l-10 1-6-1-1 2-6-1-5 1h-37l-22 1-28 1-4 1-35 1-37 2-13 1h-15l-28 1-35 1h-15l-51 2-26 1-11 2-8 5-1 2h-2l-2 13-1 13 1 46v18l5 46 4 10 3 6 3 3v2l11 2 8 2 18 2 29 1 43 4 12 3 6 3 3 6 1 4v21l-3 26-1 10v10l2 8 2 4 3-9 6-7 5-4 5-2 5-3h3l4-1 9-4 11-9 9-6 11-7 19-9 14-6 10-5 28-8 27-6 17-2 10-1 3 1-2 4-4 4-3 9-1 11-1 23-3-2-3-8-2-14-1-11-2-1-2-3-2 1-10-1-2-1v2l-16 2-17 4-24 8-8 3-11 6-10 4-16 10-9 8-8 6-12 12-7 8-5 6-5 5-7 10-2 3h-3l1 3v9l-3 21-2 27-1 13-1 14-2 18-2 1-2-179-2-16-5-10-6-5-7-3-8-1h-17l-21 1-52-2-9-1-11-9-16-8v-15l4-48v-17l-2-23-6-26-3-14v-18l3-6 11-8 17-9 4-1 16-1z" fill="#17c7fd"/>
<path transform="translate(419,729)" d="m0 0 3 1v3h5l7 16 9 16 11 14 12 13 16 17 14 13 17 12 21 10 36 13 17 5 23 4 28 3h16l27-3 21-4 24-8 20-9 12-7 16-12 14-12 13-10 20-13 6-1 4 3 4-3h4l-2 6-6 14-5 12-26 46-14 28-13 21-8 10-9 10-16 17-12 12-10 8-18 14-13 9-16 11-18 10-14 6-29 8-21 4-30 4-10 1h-28l-38-7-23-6-22-8-17-9-10-6v-2l8 1 7 3 5 3 10 3 19 8 13 6h6l18 5 22 3h27l15-3 13-4 10-2 9-3 10-7 5-5 8-1 5-3 13-3 9-2 12-5 4-3 9-2 21-11 14-8 13-11 5-2 2-4 2-3h2v-2l9-7 12-16 7-10 6-8 4-10 2-4 3-24v-8l-4-6-8-1-8 1-9 3-4 2-19 4-18 4-12 3-21 4-12 1h-21l-18-2-28-6-22-6-15-5-21-10-14-8-11-6-12-8-16-13-5-4v-2h-2l-7-8-1-3h-2l-7-8-11-13-9-14-2-8-9-15-3-9z" fill="#17c7fd"/>
<path transform="translate(982,441)" d="m0 0 2 1-14 10h-2l-2 4-8 7-3 1-2 6-6 7-3 5-10 8-6 10-9 14-2 12-2 9-3 16-2 20-5 30-2 20-2 27-2 26-6 51v18l-2 12-5 31-2 13-6 20-7 25-10 27-5 13-4 11h-2l-2 9-5 8-4 10-3 6h-2l-2 6-5 9-3 5h-2l-1 6-10 15-4 5-6 5-7 8-8 7-6 10-8 9-5 5-6 7-4 8-7 6-2 4 4 3 23 1 9-2 15-5 14-5 20-7 12-6 15-8 11-6 13-7 11-8 7-5 7-3 3 1-8 7-22 14-21 13-28 15-17 9-28 10-35 10-27 7-19 3-30 3h-29l-5-1 3-2 21-8 15-8 20-13 18-10 20-11 8-6 12-11 10-8 11-10 9-11 13-16 11-15 12-19 12-22 11-22 7-17 12-48 8-36 7-31 5-34 1-12 1-28 1-75h1l1 13 3-28v-9l1-11 3-32 2-11v-12l3-1 6-9 6-8h2l2-4 8-8 7-8 10-10 11-8 6-5 13-8z" fill="#0F80AD"/>
<path transform="translate(373,295)" d="m0 0h2l-1 6-4 5-7 16-6 9-3 5-1 4-1 19-2 18-1 13-2 21-6 46v20l1 31 2 13 2 28h2l6 16 4 13 3 10 6 11 8 15 3 8 5 11 2 1v-2l5 1 3 11 6 6-1-7 2-7 3-24 2-13 3-21 4-8 7-16 1-6 4-11 6-9 1-3h2l1-4 7-11 15-20 7-10h2l2-5 8-7 10-9 13-10 16-10 5-3h3l-1 3-11 7-13 11-8 7-12 11-9 10-11 13-14 19-10 18-8 20-13 53-4 22v22l9 45 4 18 5 16-1 3-3-1v-3l-2 1 3 9 5 8 5 9-1 3-4-6-9-11-12-17-7-9-9-13-6-10-6-15-7-15-3-7-7-16-6-16-10-33-9-39-3-23-1-11-1-29v-27l2-43 2-26 6-36 2-10v-11l-6-1-3-2 2-4 34-34z" fill="#207397"/>
<path transform="translate(829,199)" d="m0 0h150l88 2 23 1 3 2-13 1h-14l-23 1h-31l-17 1h-25l-2 1h-64l-31 1h-60l-26 1-29 3-6 3-3 1-1 4-3 11-1 20v66l1 16 1 54-5 1-5-3v-15l4-48v-17l-2-23-6-26-3-14v-18l3-6 11-8 17-9 4-1 16-1z" fill="#0B5C69"/>
<path transform="translate(982,441)" d="m0 0 2 1-14 10h-2l-2 4-8 7-3 1-2 6-6 7-3 5-10 8-6 10-9 14-2 12-2 9-3 16-2 20-5 30-2 20-2 27-2 26-4 34-4 30-2 10-2 17-4 24-5 22-6 16-4 14-2 5h-2v2h-2l1-8 20-88 5-34 1-12 1-28 1-75h1l1 13 3-28v-9l1-11 3-32 2-11v-12l3-1 6-9 6-8h2l2-4 8-8 7-8 10-10 11-8 6-5 13-8z" fill="#227498"/>
<path transform="translate(897,718)" d="m0 0h2l1 4h-2l1 4-4 22-3 21-3 15-3 17-4 14-4 16-3 10-4 12-2 7h-2l-2 9-4 11-5 13-4 9-8 16-8 15-5 10-6 9-8 16-8 11h-2l-2 4-5 5-3 6-4 5h-2l-2 4-5 5-1 9 2 6-1 4 4 1h13l14-1 13-4 15-5 16-8 13-8 14-7 20-14h2v-2l5-3 9-7h2v-2l4-1 2 2-1 2h-2l-2 4-12 12-6 1-6 3-20 14-11 6-19 10-16 8-21 8-10 3-13 5-16 4-23-1-5-4 4-6 4-4h2l2-6 6-8 4-4h2l2-4 9-11 4-7 8-7 4-5h2l2-4h2l1-3h2l2-4 4-5 6-10 3-7h2l2-5 9-16 2-1 1-4 5-12 4-6 3-9h2l1-6 5-12 13-36 6-22 4-13 2-9 4-23 4-28 3-14z" fill="#148DB2"/>
<path transform="translate(1096,404)" d="m0 0 4 1-2 4-4 4-3 9-1 11-1 23-3-2-3-8-2-14-1-11-2-1-2-3-2 1-10-1-2-1v2l-16 2-17 4-24 8-8 3-11 6-10 4-16 10-9 8-8 6-12 12-7 8-5 6-5 5-7 10-2 3h-3l1 3v9l-3 21-2 27-1 13-1 14-2 18-2 1v-87l1-14 1-16 3-16 2 1 1 6 5-10 5-6 5-4 5-2 5-3h3l4-1 9-4 11-9 9-6 11-7 19-9 14-6 10-5 28-8 27-6 17-2z" fill="#0D738D"/>
<path transform="translate(1075,398)" d="m0 0 14 1v3l5-1-5 5-13 1-16 3-32 8-15 5-15 7-16 7-17 9-8 6-6 4-5 4h-2l-1 3-9 4-4 2-5 1h-2l-6 4-4 2-5 5-4 5-3 9-3-4v-8l5-20h2l5-12 6-2 8-7 1 2 16-8 5-5 7-3 12-2 12-3h9l14-3 11-5 19-7 2-2 12-3 6-2 9-1z" fill="#108086"/>
<path transform="translate(664,197)" d="m0 0h18l10 6 12 11 5 6 2 6 1 1-1 16-5 31-1 12v103l-2 6-6 5-6 1 3-6 1-5 2-47v-58l-1-8-1-7v-30l-1-4v-17l-1-5-4-2-7-2h-65l-37 2v-2l9-2-6-1 3-2 37-5z" fill="#0F758D"/>
<path transform="translate(519,436)" d="m0 0h3l-1 3-11 7-13 11-8 7-12 11-9 10-11 13-14 19-10 18-8 20-13 53-4 22v22l9 45 4 18 5 16-1 3-3-1v-3l-2 1 1 7-4-4-5-10v-3h-2l-5-14 1-4-2-11v-12l-2-18-1-22 2-12v-16l2-13 3-21 4-8 7-16 1-6 4-11 6-9 1-3h2l1-4 7-11 15-20 7-10h2l2-5 8-7 10-9 13-10 16-10z" fill="#17c7fd"/>
<path transform="translate(824,790)" d="m0 0 4 1 3 2 4-3h4l-2 6-6 14-5 12-13 23-8 14-4-1 1-10-2-5-1-7-7-3-7 1-16 8-4 1-17 7-13 5-10 4-7 2h-6l-1 2-2-1v-2l24-9 19-9 17-12 11-9 13-11 14-10 14-9z" fill="#255D51"/>
<path transform="translate(355,312)" d="m0 0h1l-1 8-2 8-6 28-3 16-4 24-3 34-1 14-1 27v20l1 27 3 27 4 20 7 27 8 25 10 27 6 13 10 18 6 9 1 4h2l4 7v2l4 2 4 6 5 13v3h2l4 9 6 9 3 3 6 12 2 3-1 3-4-6-9-11-12-17-7-9-9-13-6-10-6-15-7-15-3-7-7-16-6-16-10-33-9-39-3-23-1-11-1-29v-27l2-43 2-26 6-36 2-10v-11l-6-1-3-2 2-4 15-15z" fill="#17c7fd"/>
<path transform="translate(617,209)" d="m0 0h65l8 3 3 2 2 5v18l1 6v27l1 7 1 13v56l-2 44-2 6-6 5-8 2-8-1v-1h5v-2l9-4 2-9v-12l2-31 1-36v-34l-1-46-3-9-3-3-2-1h-76l-14 1v-2l-10 1v2l-26 4-10-1 4-2 17-3 19-2h8l2-2z" fill="#148CB2"/>
<path transform="translate(419,729)" d="m0 0 3 1v3h5l7 16 9 16 11 14 12 13 16 17 14 13 17 12 21 10 36 13 17 5 23 4 28 3h16l27-3h9l-3 3-25 5-30 1-35-5-25-6-20-6-32-16-12-7-11-8-6-4v-2l-4-2-8-6-3-2v-2l-3-1v-2h-2v-2h-2v-2l-3-1-8-10v-2h-2l-7-9-5-5-6-8-7-12-9-15-3-9z" fill="#17c7fd"/>
<path transform="translate(720,1035)" d="m0 0 3 2-4 5-4 1v2l-5 3-9 7-3 4 1 3 5 1v2l13 1 4 1 7-1 12-2 8-2 1 2-7 3-21 5-23 3-21 2h-29l-5-1 3-2 21-8 15-8 20-13z" fill="#0C677B"/>
<path transform="translate(777,993)" d="m0 0 2 1-4 6-3 5h-2l-2 4-7 6-6 4-5 4-5 6-10 8-4 4h-2v2l-14 9-7 4v4l6 2h12l15-2 13-3 15-3 8-2h12l-1 2-35 10-6 1v-2l-11 3-13 1-3 1-10-2-6-1-6-3v-4l6-7 6-4 2-2h3v-2l5-3 2-3v-3l18-10 8-6 12-11 10-8z" fill="#1A8EC2"/>
<path transform="translate(611,206)" d="m0 0h61l18 2 7 6 2 12v21l1 5 1 18v64l-2 40-1 21-1 5-6 1 3-6 1-5 2-47v-58l-1-8-1-7v-30l-1-4v-17l-1-5-4-2-7-2h-65l-37 2v-2l10-2z" fill="#1F7497"/>
<path transform="translate(1079,676)" d="m0 0h4l1 3v9l-4 27-6 31-8 26-7 17-3 1-1-3 4-16 2-4 3-18 3-13 2-9h2l1-10 4-16 2-23z" fill="#198FB4"/>
<path transform="translate(355,312)" d="m0 0h1l-1 8-2 8-6 28-3 16-4 24-3 34-1 14-2 47-2-1v-27l2-43 2-26 6-36 2-10v-11l-6-1-3-2 2-4 15-15z" fill="#17c7fd"/>
<path transform="translate(402,619)" d="m0 0 2 2-1 13-1 7 1 21 2 19v12l2 11-2 3-6-9-3-3-3-5v-2h-2l-3-5-5-8v-2h3v-2h3l-1-4 5-1-1-4 2 1v-2l2-4 1-7h2l-1-7 2-7z" fill="#0D738D"/>
<path transform="translate(720,1035)" d="m0 0 3 2-4 5-4 1v2l-5 3-9 7-3 4 1 3 5 1v2l13 1 4 1 7-1 12-2 8-2 1 2-7 3-16 4-5-1-37-3-4-3-1-4 23-15z" fill="#0E748D"/>
<path transform="translate(885,740)" d="m0 0 2 3v8l-3 23-1 15-5 22-6 16-4 14-2 5h-2v2h-2l1-8 20-88z" fill="#12758E"/>
<path transform="translate(373,295)" d="m0 0h2l-1 6-4 5-7 16-6 9-3 5-3 13-3 19-5 21-2 5h-1l1-11 4-23 6-26 2-12 2-5 2-7 14-14z" fill="#0C738C"/>
<path transform="translate(699,212)" d="m0 0 4 1 6 7 2 6 1 1-1 16-5 31-1 2h-2l-1-25v-13l-2-20z" fill="#0D677B"/>
<path transform="translate(696,282)" d="m0 0 2 3v61l-2 44-2 6-6 5-8 2-8-1v-1l15-3 3-3 1-3 2-42 1-19 1-46z" fill="#0F81AF"/>
<path transform="translate(617,209)" d="m0 0h65l8 3 3 2 2 5v6h-1l-2-6-2-4-7-2-21-1-50 1-20 2v-2l-10 1v2l-26 4-10-1 4-2 17-3 19-2h8l2-2z" fill="#1082B1"/>
<path transform="translate(602,403)" d="m0 0h17v1l-36 6-5 2h-6v2l-22 6-20 9-22 11-14 10-5 2v2l-5 3-4 3-2-1 5-6 18-12 7-5h3v-2l16-8 15-7 10-3 7-2 8-3 8-1 9-3 9-2z" fill="#0E80AD"/>
<path transform="translate(664,197)" d="m0 0h18l7 4v2l-8 1h-69l-1-2 12-2z" fill="#0D677B"/>
<path transform="translate(837,909)" d="m0 0h1v5l-8 15-5 9h-2l-1 4-5 9-8 13-8 8-7 8-5 5h-2v2l-5 2 2-4 8-9 13-17 9-12 12-19z" fill="#1B8FC2"/>
<path transform="translate(902,525)" d="m0 0 2 3 1 8v20l-3 30-2 11h-2v2l-3-1 1-14 2-26 2-22z" fill="#198EC4"/>
<path transform="translate(407,661)" d="m0 0h2l4 15 7 36 6 19-1 3-3-1v-3h-2l-3-6-6-19-1-3-2-30-1-3z" fill="#0C5D6A"/>
<path transform="translate(1096,404)" d="m0 0 4 1-2 4-4 4-3 9-1 11-1 23-3-2-3-8-1-18 3-17 1-2h2l1-4z" fill="#0C677C"/>
<path transform="translate(611,206)" d="m0 0h61l9 1 1 2-65 1-37 2v-2l10-2z" fill="#207398"/>
<path transform="translate(519,436)" d="m0 0h3l-1 3-11 7-13 11-5 3v-2l-14 11-12 12-4 5h-2l3-6h2l2-5 8-7 10-9 13-10 16-10z" fill="#137890"/>
<path transform="translate(896,471)" d="m0 0h1v10l1 5-3 16-1 23-1 7h-1l-1-14v-37l3-7h2z" fill="#0F6A7D"/>
<path transform="translate(327,340)" d="m0 0v3l-1 2h-2l-2 4h-2l-2 4-6 7h-2l-2 4-6 7-1 2h-3l-2 4-7 8-5 3 1-4 12-14 7-7 6-7 8-7z" fill="#4B7B44"/>
<path transform="translate(595,210)" d="m0 0h17v1h-6v3l-14 1v-2l-10 1v2l-26 4-10-1 4-2 17-3 19-2h8z" fill="#1289B0"/>
<path transform="translate(706,218)" d="m0 0 3 2 2 6 1 1-1 16-2 12-2 1-1-2-1-35z" fill="#0B5F6B"/>
<path transform="translate(1077,499)" d="m0 0 2 3 2 10 4 38 2 6v13l-2 1-3-12-1-21-1-7v-6l-1-3-1-12z" fill="#217398"/>
<path transform="translate(561,411)" d="m0 0h6l-1 2-13 3-7 3-10 4-23 11h-2v2l-9 5-3 3h-2l1-3h2v-2l13-8 8-5 17-7 6-3z" fill="#148DB2"/>
<path transform="translate(351,339)" d="m0 0h1v7l-6 30-4 15-2 3 1-11 4-23 4-18z" fill="#0D748D"/>
<path transform="translate(703,344)" d="m0 0 2 2v43l-2 6-2 1v-17l1-26z" fill="#147380"/>
<path transform="translate(682,208)" d="m0 0h8l7 6 2 12-1 15-2 1-2-6v-17l-1-5-4-2-7-2z" fill="#1D7594"/>
<path transform="translate(662,1070)" d="m0 0 4 1h17l8 2v2l-4 1h-28l1-4z" fill="#0A5A68"/>
<path transform="translate(373,295)" d="m0 0h2l-1 4-4 4h-2v2h-2l-1 4-7 9h-2l-1 2 1-9 15-15z" fill="#0B647A"/>
<path transform="translate(749,1062)" d="m0 0m-2 0 2 2-7 3-16 4-5-1 2-4 13-1z" fill="#0F758E"/>
<path transform="translate(376,547)" d="m0 0h2l2 5 4 2 1 1v5l-4 2-5-6-1-8z" fill="#217398"/>
<path transform="translate(697,371)" d="m0 0 2 3-1 21-1 5-6 1 3-6 1-5 1-17z" fill="#207398"/>
<path transform="translate(878,407)" d="m0 0 7 1 4 4 1 9-2 2-5-9-5-5z" fill="#0B5D6A"/>
<path transform="translate(814,402)" d="m0 0h20l2 1v2l-12 1-15-1 1-2z" fill="#135E6D"/>
<path transform="translate(485,459)" d="m0 0m-1 1m-1 1m-1 1m-1 1m-1 1m-2 1h2l-2 4-12 12-4 5h-2l3-6h2l2-5 8-7z" fill="#0D748D"/>
<path transform="translate(651,1072)" d="m0 0 2 1-1 2 6-2v3h19v1h-29l-5-1 3-2z" fill="#148883"/>
<path transform="translate(595,210)" d="m0 0h17v1h-6v3l-14 1v-2z" fill="#1489B8"/>
<path transform="translate(565,214)" d="m0 0h14v1l-27 4h-6l4-2z" fill="#0E80AD"/>
<path transform="translate(676,209)" d="m0 0 9 1 5 2 3 2 2 5v6h-1l-2-6-2-4-8-3-6-2z" fill="#1083B2"/>
<path transform="translate(388,560)" d="m0 0 6 2-2 1-2 5h-3l-4-6z" fill="#217398"/>
<path transform="translate(373,295)" d="m0 0h2l-1 4h-3l-14 14v-3l14-14z" fill="#0F757F"/>
<path transform="translate(879,797)" d="m0 0h1l-1 8-2 8-3 9h-1l1-8z" fill="#217398"/>
<path transform="translate(670,209)" d="m0 0 11 1 1 2h-15v-2z" fill="#0E80AD"/>
<path transform="translate(694,1050)" d="m0 0h2l-1 4-7 4h-3v-2z" fill="#0E6A7F"/>
<path transform="translate(813,1041)" d="m0 0h7l-4 3-9 3 1-4z" fill="#188DBF"/>
<path transform="translate(549,424)" d="m0 0 4 2-11 4h-3v-2l7-3z" fill="#187C91"/>
<path transform="translate(697,863)" d="m0 0h6l-3 3-9 1 2-3z" fill="#2F664F"/>
<path transform="translate(875,794)" d="m0 0h1v6l-3 6h-1l1-10z" fill="#0D687D"/>
</svg>
